<?xml version="1.0" encoding="iso-8859-1"?>
<!-- Generator: Adobe Illustrator 19.0.0, SVG Export Plug-In . SVG Version: 6.00 Build 0)  -->
<svg version="1.1" id="Capa_1" xmlns="http://www.w3.org/2000/svg" xmlns:xlink="http://www.w3.org/1999/xlink" x="0px" y="0px"
	 viewBox="0 0 512 512" style="enable-background:new 0 0 512 512;" xml:space="preserve">
<rect x="212.62" y="269.045" style="fill:#FEC9A3;" width="86.761" height="78.085"/>
<path style="fill:#F7BB8F;" d="M212.62,269.071v21.517c26.262,17.543,60.498,17.543,86.761,0v-21.517H212.62z"/>
<path style="fill:#E5E5E5;" d="M368.008,323.036l-68.628-10.585c-26.688,16.059-60.073,16.059-86.761,0l-68.628,10.585
	c-25.403,3.896-44.161,25.751-44.161,51.449V512h312.338V374.485C412.169,348.786,393.411,326.931,368.008,323.036z"/>
<path style="fill:#DEDEDE;" d="M99.831,509.224V512h312.338V374.485c-0.043-8.346-2.1-16.563-5.986-23.946
	C330.614,467.839,164.121,500.721,99.831,509.224z"/>
<g>
	<rect x="203.944" y="442.566" style="fill:#BFBFBF;" width="17.352" height="17.352"/>
	<rect x="203.944" y="390.509" style="fill:#BFBFBF;" width="17.352" height="17.352"/>
	<rect x="203.944" y="494.622" style="fill:#BFBFBF;" width="17.352" height="17.352"/>
	<rect x="290.704" y="442.566" style="fill:#BFBFBF;" width="17.352" height="17.352"/>
	<rect x="290.704" y="390.509" style="fill:#BFBFBF;" width="17.352" height="17.352"/>
	<rect x="290.704" y="494.622" style="fill:#BFBFBF;" width="17.352" height="17.352"/>
	<rect x="342.761" y="381.833" style="fill:#BFBFBF;" width="17.352" height="130.141"/>
	<path style="fill:#BFBFBF;" d="M284.11,312.451c-4.65-1.145-9.344,1.692-10.498,6.333l-7.288,29.065l-19.868,3.123l-7.808-31.928
		c-0.972-4.694-5.561-7.713-10.255-6.741c-4.694,0.972-7.713,5.561-6.741,10.255c0.043,0.217,0.095,0.434,0.165,0.651l7.635,30.626
		l-70.189,10.672c-4.277,0.651-7.427,4.347-7.375,8.676V512h17.352V380.645l105.414-16.137c3.47-0.529,6.281-3.097,7.114-6.507
		l8.676-34.704c1.327-4.607-1.327-9.414-5.934-10.741C284.379,312.52,284.249,312.486,284.11,312.451z"/>
</g>
<path style="fill:#E5E5E5;" d="M360.113,34.817c0-19.165-15.539-34.704-34.704-34.704s-34.704,15.539-34.704,34.704
	c0-19.165-15.539-34.704-34.704-34.704s-34.704,15.539-34.704,34.704C221.365,15.652,205.879,0.061,186.704,0
	c-19.165-0.061-34.756,15.426-34.817,34.591c-0.052,15.869,10.663,29.75,26.028,33.715v87.975h156.169V68.307
	C349.372,64.359,360.069,50.599,360.113,34.817z"/>
<path style="fill:#FEC9A3;" d="M177.916,156.282h156.169l0,0v52.056c0,43.129-34.956,78.084-78.084,78.084l0,0
	c-43.129,0-78.084-34.956-78.084-78.084V156.282L177.916,156.282z"/>
<path style="fill:#BFBFBF;" d="M334.085,112.902h-43.38V86.874c0-4.789-3.887-8.676-8.676-8.676c-4.789,0-8.676,3.887-8.676,8.676
	v26.028h-34.704V86.874c0-4.789-3.887-8.676-8.676-8.676s-8.676,3.887-8.676,8.676v26.028h-17.352c-4.789,0-8.676,3.887-8.676,8.676
	c0,4.789,3.887,8.676,8.676,8.676h130.141V112.902z"/>
<g>
</g>
<g>
</g>
<g>
</g>
<g>
</g>
<g>
</g>
<g>
</g>
<g>
</g>
<g>
</g>
<g>
</g>
<g>
</g>
<g>
</g>
<g>
</g>
<g>
</g>
<g>
</g>
<g>
</g>
</svg>
