<svg id="Capa_1" enable-background="new 0 0 512 512" height="512" viewBox="0 0 512 512" width="512" xmlns="http://www.w3.org/2000/svg"><g><g><path d="m379.047 309.703h-6.257v-191.645c0-64.548-51.83-117.834-116.377-118.057-64.691-.224-117.203 52.15-117.203 116.789v192.913h-6.257c-41.465 0-75.079 33.614-75.079 75.079v116.916c0 5.69 4.612 10.302 10.302 10.302h375.649c5.69 0 10.302-4.612 10.302-10.302v-116.916c-.001-41.465-33.615-75.079-75.08-75.079z" fill="#e4f6ff"/></g><g><path d="m256.003 328.673-.907-.003c-23.304-.173-45.994-6.946-65.646-19.588-3.483-2.241-4.491-6.882-2.25-10.365 2.241-3.482 6.88-4.491 10.365-2.25 17.26 11.103 37.182 17.052 57.611 17.203l.85.003c20.887 0 41.151-5.877 58.581-16.997 3.491-2.225 8.129-1.203 10.356 2.289 2.228 3.492 1.203 8.129-2.289 10.357-19.843 12.659-42.898 19.351-66.671 19.351z" fill="#b1e4f9"/></g><g><path d="m379.047 309.703h-6.257v-192.913c0-64.501-52.288-116.79-116.79-116.79-5.685 0-11.273.414-16.741 1.199 56.796 8.207 100.162 57.817 100.162 116.858v197.901c0 11.518 9.337 20.855 20.855 20.855h6.257c29.947 0 54.224 24.277 54.224 54.224v120.963h23.067c5.69 0 10.302-4.612 10.302-10.302v-116.916c0-41.465-33.614-75.079-75.079-75.079z" fill="#b1e4f9"/></g><g><path d="m139.21 139.731h33.369v33.369h-33.369z" fill="#ffe07d" transform="matrix(-1 0 0 -1 311.788 312.831)"/></g><g><path d="m172.578 137.875v65.46c0 45.998 36.792 84.125 82.789 84.466 46.363.344 84.054-37.136 84.054-83.419v-66.507c0-17.277-14.006-31.283-31.283-31.283h-104.276c-17.278 0-31.284 14.006-31.284 31.283z" fill="#ffddce"/></g><g><path d="m308.138 106.592h-21.898c17.277 0 31.283 14.006 31.283 31.283v66.508c0 42.34-31.549 77.292-72.417 82.681 3.362.445 6.781.713 10.261.739 46.363.344 84.054-37.136 84.054-83.419v-66.508c.001-17.278-14.005-31.284-31.283-31.284z" fill="#ffcbbe"/></g><g><path d="m172.578 139.731v66.737h58.247c2.766 0 5.418-1.099 7.374-3.054l10.428-10.428c4.072-4.072 10.675-4.072 14.747 0l10.428 10.428c1.956 1.956 4.608 3.054 7.373 3.054h58.247v-66.737z" fill="#90d8f9"/></g><g><path d="m317.523 204.383c0 .699-.031 1.391-.048 2.086h21.894c.017-.695.053-1.386.053-2.086v-64.652h-21.898v64.652z" fill="#6bbef6"/></g><g><g><path d="m339.19 206.469h-33.137v15.453h31.507c1.069-4.996 1.677-10.16 1.808-15.444-.059-.002-.118-.009-.178-.009z" fill="#b1e4f9"/></g><g><path d="m205.947 206.469h-33.29c.193 5.282.873 10.446 1.993 15.453h31.298v-15.453z" fill="#b1e4f9"/></g></g><g><path d="m255.367 287.802c19.026.141 36.585-6.097 50.685-16.69v-64.644h-100.105v64.384c13.759 10.502 30.837 16.812 49.42 16.95z" fill="#95d6a4"/></g><g><path d="m245.01 287.075c3.391.453 6.847.701 10.357.727 19.026.141 36.585-6.097 50.685-16.69v-24.531c-12.745 21.685-34.999 37.091-61.042 40.494z" fill="#78c2a4"/></g><g><path d="m339.422 139.731h33.369v33.369h-33.369z" fill="#f1cb86"/></g><g><path d="m239.316 361.841h33.369v150.159h-33.369z" fill="#90d8f9"/></g><g><path d="m382.175 434.961v-12.765c0-5.69-4.612-10.302-10.302-10.302h-54.476c-5.69 0-10.302 4.612-10.302 10.302v12.765c0 5.69 4.612 10.302 10.302 10.302h54.476c5.69 0 10.302-4.613 10.302-10.302z" fill="#95d6a4"/></g><g><path d="m129.825 434.961v-12.765c0-5.69 4.612-10.302 10.302-10.302h54.476c5.69 0 10.302 4.612 10.302 10.302v12.765c0 5.69-4.612 10.302-10.302 10.302h-54.476c-5.69 0-10.302-4.613-10.302-10.302z" fill="#95d6a4"/></g><g><g><path d="m129.825 470.905c-4.267 0-7.726 3.459-7.726 7.726v33.369h15.453v-33.368c-.001-4.268-3.46-7.727-7.727-7.727z" fill="#b1e4f9"/></g><g><path d="m382.175 470.905c-4.267 0-7.726 3.459-7.726 7.726v33.369h15.453v-33.368c-.001-4.268-3.46-7.727-7.727-7.727z" fill="#b1e4f9"/></g></g><g><path d="m192.225 363.148c5.05 4.14 11.428 6.42 17.959 6.42h91.633c6.531 0 12.908-2.28 17.959-6.42l64.919-53.212c-1.866-.139-3.745-.233-5.647-.233h-6.257v-9.991l-62.811 51.484c-2.296 1.882-5.195 2.919-8.163 2.919h-91.633c-2.968 0-5.867-1.036-8.163-2.919l-62.811-51.484v9.991h-6.257c-1.902 0-3.78.094-5.647.233z" fill="#b1e4f9"/></g></g></svg>