<?xml version="1.0" encoding="iso-8859-1"?>
<!-- Generator: Adobe Illustrator 19.0.0, SVG Export Plug-In . SVG Version: 6.00 Build 0)  -->
<svg version="1.1" id="Capa_1" xmlns="http://www.w3.org/2000/svg" xmlns:xlink="http://www.w3.org/1999/xlink" x="0px" y="0px"
	 viewBox="0 0 512 512" style="enable-background:new 0 0 512 512;" xml:space="preserve">
<rect x="25.6" y="217.6" style="fill:#EBEBEB;" width="460.8" height="281.6"/>
<polygon style="fill:#E0E0E0;" points="25.6,445.918 25.6,499.2 486.4,499.2 486.4,217.6 396.075,217.6 "/>
<g>
	<rect x="68.267" y="260.267" style="fill:#4398D1;" width="230.4" height="110.933"/>
	<rect x="341.333" y="260.267" style="fill:#4398D1;" width="110.933" height="238.933"/>
</g>
<rect x="179.2" y="4.267" style="fill:#75462E;" width="51.2" height="162.133"/>
<rect x="128" y="4.267" style="fill:#4398D1;" width="51.2" height="162.133"/>
<polygon style="fill:#3E8CC7;" points="25.6,166.4 25.6,209.067 25.6,217.6 76.8,217.6 76.8,166.4 "/>
<rect x="25.6" y="4.267" style="fill:#4398D1;" width="51.2" height="162.133"/>
<rect x="76.8" y="166.4" style="fill:#6B402A;" width="51.2" height="51.2"/>
<rect x="384" y="4.267" style="fill:#75462E;" width="51.2" height="162.133"/>
<rect x="332.8" y="4.267" style="fill:#4398D1;" width="51.2" height="162.133"/>
<rect x="281.6" y="4.267" style="fill:#75462E;" width="51.2" height="162.133"/>
<rect x="230.4" y="4.267" style="fill:#4398D1;" width="51.2" height="162.133"/>
<rect x="76.8" y="4.267" style="fill:#75462E;" width="51.2" height="162.133"/>
<rect x="384" y="166.4" style="fill:#6B402A;" width="51.2" height="51.2"/>
<polygon style="fill:#3E8CC7;" points="435.2,217.6 486.4,217.6 486.4,209.067 486.4,166.4 435.2,166.4 "/>
<rect x="435.2" y="4.267" style="fill:#4398D1;" width="51.2" height="162.133"/>
<rect x="230.4" y="166.4" style="fill:#3E8CC7;" width="51.2" height="51.2"/>
<rect x="179.2" y="166.4" style="fill:#6B402A;" width="51.2" height="51.2"/>
<rect x="128" y="166.4" style="fill:#3E8CC7;" width="51.2" height="51.2"/>
<rect x="281.6" y="166.4" style="fill:#6B402A;" width="51.2" height="51.2"/>
<g>
	<rect x="332.8" y="166.4" style="fill:#3E8CC7;" width="51.2" height="51.2"/>
	<polygon style="fill:#3E8CC7;" points="100.267,371.2 298.667,371.2 298.667,260.267 254.78,260.267 	"/>
</g>
<rect x="51.2" y="362.667" style="fill:#75462E;" width="264.533" height="17.067"/>
<polygon style="fill:#3E8CC7;" points="341.333,389.248 341.333,499.2 452.267,499.2 452.267,305.587 "/>
<g>
	<rect x="366.933" y="328.533" style="fill:#75462E;" width="17.067" height="76.8"/>
	<path style="fill:#75462E;" d="M79.198,465.067h36.395l2.321,25.6h17.143l-7.834-86.101c-0.401-4.412-4.105-7.782-8.533-7.765
		H76.023c-4.429-0.017-8.132,3.354-8.533,7.765l-7.757,86.101h17.143L79.198,465.067z M83.849,413.867h27.085L114.039,448h-33.28
		L83.849,413.867z"/>
	<path style="fill:#75462E;" d="M164.531,465.067h36.395l2.321,25.6h17.143l-7.834-86.101c-0.401-4.412-4.105-7.782-8.533-7.765
		h-42.667c-4.429-0.017-8.132,3.354-8.533,7.765l-7.757,86.101h17.143L164.531,465.067z M169.182,413.867h27.085L199.373,448h-33.28
		L169.182,413.867z"/>
	<path style="fill:#75462E;" d="M249.865,465.067h36.395l2.321,25.6h17.143l-7.834-86.101c-0.401-4.412-4.105-7.782-8.533-7.765
		H246.69c-4.429-0.017-8.132,3.354-8.533,7.765l-7.757,86.101h17.143L249.865,465.067z M254.515,413.867H281.6L284.706,448h-33.28
		L254.515,413.867z"/>
</g>
<rect y="490.667" style="fill:#D1D1D1;" width="512" height="17.067"/>
<g>
</g>
<g>
</g>
<g>
</g>
<g>
</g>
<g>
</g>
<g>
</g>
<g>
</g>
<g>
</g>
<g>
</g>
<g>
</g>
<g>
</g>
<g>
</g>
<g>
</g>
<g>
</g>
<g>
</g>
</svg>
